<svg width="160" height="160" viewBox="0 0 160 160" fill="none" xmlns="http://www.w3.org/2000/svg">
<g clip-path="url(#clip0_2024_97)">
<path d="M80 160C124.183 160 160 124.183 160 80C160 35.8172 124.183 0 80 0C35.8172 0 0 35.8172 0 80C0 124.183 35.8172 160 80 160Z" fill="#F2F2F2"/>
<mask id="mask0_2024_97" style="mask-type:luminance" maskUnits="userSpaceOnUse" x="0" y="0" width="160" height="160">
<path d="M80 160C124.183 160 160 124.183 160 80C160 35.8172 124.183 0 80 0C35.8172 0 0 35.8172 0 80C0 124.183 35.8172 160 80 160Z" fill="white"/>
</mask>
<g mask="url(#mask0_2024_97)">
<path d="M73.6903 32.7773L83.106 35.3748C83.106 35.3748 87.3888 35.8153 83.756 48.0375C80.1233 60.2598 77.4748 83.7393 65.2683 85.8945C53.0618 88.0498 43.3323 60.3745 43.3323 60.3745L73.6903 32.7773Z" fill="#090814"/>
<path d="M115.19 123.868L78.4178 117.295L80.3133 129.87L113.851 132.645C115.161 134.486 117.388 135.878 120.066 136.287C124.752 137.001 129.03 134.437 129.621 130.559C130.212 126.681 126.893 122.959 122.208 122.244C119.53 121.836 116.988 122.502 115.189 123.869L115.19 123.868Z" fill="#FFB6B6"/>
<path d="M62.3923 79.057H66.0565L68.2553 82.5417L87.076 119.438L78.4328 132.01L66.0578 119.403L62.3923 79.057Z" fill="#AB4ABA"/>
<path opacity="0.2" d="M62.3923 79.057H66.0565L68.2553 82.5417L87.076 119.438L78.4328 132.01L66.0578 119.403L62.3923 79.057Z" fill="black"/>
<path d="M45.2335 39.0073C46.7122 35.7921 49.0529 33.0497 51.9959 31.0845C54.939 29.1193 58.369 28.0081 61.9054 27.8745C65.4417 27.7409 68.9459 28.5899 72.0288 30.3274C75.1117 32.0649 77.6528 34.6228 79.3699 37.7172C81.0869 40.8116 81.9128 44.3213 81.7558 47.8566C81.5988 51.392 80.465 54.8146 78.4804 57.7446C76.4957 60.6745 73.7379 62.9971 70.5131 64.4545C67.2882 65.9118 63.7226 66.4469 60.212 66.0003L57.1753 70.6253L66.4568 106.421L46.6335 86.6805L36.0555 64.5133C36.0555 64.5133 41.9275 61.498 46.3588 57.0915C44.6909 54.4051 43.7151 51.347 43.5188 48.1911C43.3224 45.0351 43.9117 41.8797 45.2338 39.0073H45.2335Z" fill="#FFB6B6"/>
<path d="M40.4063 68.9837L61.293 102.219L57.995 73.5417L67.5223 96.9012L53.2368 155.585L38.5743 153.685L40.4063 68.9837Z" fill="#090814"/>
<path d="M33.6273 164.623L59.169 109.223L39.1238 67.518L30.7008 71.8025C30.7008 71.8025 17.7258 76.1133 23.9173 92.4355C30.1088 108.758 26.9008 132.683 21.9008 136.403C16.9008 140.123 8.89227 151.981 8.89227 151.981C8.89227 151.981 10.7315 162.71 33.6265 164.623L33.6273 164.623Z" fill="#AB4ABA"/>
<path d="M50.8498 159.606L68.2553 160L62.3928 135.791L71.1873 123.024C71.1873 123.024 79.033 113.894 74.3813 104.249L69.7215 94.8995L64.9753 79.6442L57.6293 72.2815L63.4928 103.16L50.8498 159.606Z" fill="#AB4ABA"/>
<path d="M126.006 128.332L73.189 129.079L70.9905 132.01L176.006 132.135L126.006 128.332Z" fill="#090814"/>
<path d="M177.306 140.948H55.6965V147.552H177.306V140.948Z" fill="#D6D6E3"/>
<path d="M194.64 131.869H36.7125V140.949H194.64V131.869Z" fill="#D6D6E3"/>
<path d="M175.801 132.476C176.332 132.476 176.85 132.31 177.281 132C177.712 131.691 178.035 131.254 178.206 130.751L191.112 92.6943C191.241 92.3147 191.278 91.9101 191.22 91.5135C191.163 91.1168 191.012 90.7394 190.781 90.4121C190.55 90.0848 190.244 89.8169 189.889 89.6302C189.535 89.4435 189.141 89.3434 188.74 89.338L138.562 88.663C138.044 88.6599 137.538 88.8135 137.109 89.1035C136.68 89.3934 136.349 89.8064 136.159 90.288L121.599 128.007C121.452 128.388 121.398 128.799 121.444 129.204C121.489 129.61 121.632 129.999 121.86 130.338C122.087 130.677 122.393 130.956 122.752 131.152C123.11 131.347 123.511 131.454 123.919 131.462L175.801 132.475L175.801 132.476Z" fill="#AB4ABA"/>
<path d="M96.3968 128.813L59.6258 122.24L61.5213 134.815L95.0585 137.59C96.3688 139.431 98.5963 140.823 101.274 141.232C105.96 141.946 110.238 139.382 110.829 135.504C111.42 131.626 108.101 127.904 103.416 127.189C100.738 126.781 98.1965 127.447 96.397 128.814L96.3968 128.813Z" fill="#FFB6B6"/>
<path d="M31.581 98.5545L50.574 132.999L61.6415 134.156L66.8665 123.428L59.1848 117.19L45.718 82.4612" fill="#AB4ABA"/>
<path d="M83.1063 35.3747C83.1063 35.3747 61.9788 5.26824 36.6763 44.466C36.6763 44.466 24.8893 48.058 15.5718 60.3755C6.25427 72.693 12.341 110.105 30.5073 112.975C30.5073 112.975 22.7645 81.0195 33.1593 74.6625C43.554 68.3055 59.2975 49.5502 59.2975 49.5502L59.5665 49.6607L79.8593 40.2447L83.106 35.3745L83.1063 35.3747Z" fill="#090814"/>
</g>
</g>
<defs>
<clipPath id="clip0_2024_97">
<rect width="160" height="160" fill="white"/>
</clipPath>
</defs>
</svg>
